<svg xmlns="http://www.w3.org/2000/svg" xmlns:xlink="http://www.w3.org/1999/xlink" viewBox="0 0 54 54"><defs><style>.cls-1{fill:none;}.cls-2{clip-path:url(#clip-path);}.cls-3{fill:#e41a24;}</style><clipPath id="clip-path" transform="translate(0 0)"><rect class="cls-1" width="54.1" height="54"/></clipPath></defs><title>ga</title><g id="Layer_2" data-name="Layer 2"><g id="Layer_1-2" data-name="Layer 1"><g class="cls-2"><path class="cls-3" d="M50.7,27A3.3,3.3,0,0,1,54,23.7l-.8-4a3.4,3.4,0,0,1-4.3-1.8,3.3,3.3,0,0,1,1.8-4.3l-2.3-3.4a3.3,3.3,0,1,1-4.6-4.6L40.4,3.3A3.3,3.3,0,0,1,36.1,5,3.1,3.1,0,0,1,34.3.8l-4-.8A3.2,3.2,0,0,1,27,3.2,3.2,3.2,0,0,1,23.7,0l-4,.8A3.1,3.1,0,0,1,17.9,5a3.2,3.2,0,0,1-4.3-1.7L10.2,5.6a3.3,3.3,0,0,1-4.6,4.6L3.3,13.6a3.3,3.3,0,0,1,1.8,4.3A3.4,3.4,0,0,1,.8,19.7l-.8,4A3.3,3.3,0,0,1,3.3,27,3.2,3.2,0,0,1,0,30.2l.8,4.1A3.3,3.3,0,0,1,5.1,36a3.3,3.3,0,0,1-1.8,4.3l2.3,3.5a3.3,3.3,0,1,1,4.6,4.6l3.4,2.3a3.3,3.3,0,0,1,6.1,2.5l4,.8a3.3,3.3,0,0,1,6.6,0l4-.8a3.3,3.3,0,0,1,1.8-4.3,3.3,3.3,0,0,1,4.3,1.8l3.4-2.3a3.3,3.3,0,1,1,4.6-4.6l2.3-3.5A3.3,3.3,0,0,1,48.9,36a3.3,3.3,0,0,1,4.3-1.7l.8-4.1A3.2,3.2,0,0,1,50.7,27M23.9,41.4A5.8,5.8,0,0,1,19.6,43a5.4,5.4,0,0,1-4.2-1.6,6.1,6.1,0,0,1-1.5-4.3V16.8a6.1,6.1,0,0,1,1.5-4.3,5.6,5.6,0,0,1,4.2-1.6,5.6,5.6,0,0,1,4.2,1.6,6.1,6.1,0,0,1,1.6,4.3v4.9H21.1V16.4a1.5,1.5,0,0,0-2.9.1V37.4a1.4,1.4,0,0,0,1.4,1.4,1.5,1.5,0,0,0,1.5-1.4V31.7H19.6V27.8h5.8v9.3A6.1,6.1,0,0,1,23.9,41.4Zm11.6,1.3-1-7.7H31.9l-1,7.7H26.4l4.2-31.5h5.2L40,42.7Z" transform="translate(0 0)"/></g><path class="cls-3" d="M33.2,26.7a2.3,2.3,0,0,0-2.3,2.4,2.4,2.4,0,0,0,2.3,2.5,2.5,2.5,0,0,0,0-4.9" transform="translate(0 0)"/></g></g></svg>