<?xml version="1.0" encoding="iso-8859-1"?>
<!-- Generator: Adobe Illustrator 19.0.0, SVG Export Plug-In . SVG Version: 6.00 Build 0)  -->
<svg version="1.1" id="Capa_1" xmlns="http://www.w3.org/2000/svg" xmlns:xlink="http://www.w3.org/1999/xlink" x="0px" y="0px"
	 viewBox="0 0 511.999 511.999" style="enable-background:new 0 0 511.999 511.999;fill:#fff;" xml:space="preserve">
<g>
	<g>
		<path d="M177.303,229.206c-16.63,0-30.159,16.325-30.159,36.39c0,20.065,13.529,36.391,30.159,36.391
			c16.63,0,30.159-16.325,30.159-36.391C207.462,245.53,193.933,229.206,177.303,229.206z M177.303,286.989
			c-8.218,0-15.161-9.797-15.161-21.393c0-11.596,6.943-21.392,15.161-21.392s15.161,9.797,15.161,21.392
			C192.464,277.194,185.521,286.989,177.303,286.989z"/>
	</g>
</g>
<g>
	<g>
		<path d="M334.596,229.207c-16.63,0-30.159,16.325-30.159,36.39s13.529,36.391,30.159,36.391s30.159-16.325,30.159-36.391
			S351.226,229.207,334.596,229.207z M334.596,286.989c-8.218,0-15.161-9.797-15.161-21.393c0-11.595,6.944-21.392,15.161-21.392
			c8.218,0,15.161,9.797,15.161,21.392C349.757,277.193,342.814,286.989,334.596,286.989z"/>
	</g>
</g>
<g>
	<g>
		<path d="M313.667,374.666c-22.316-49.328-92.849-49.688-115.43-0.012c-1.714,3.771-0.046,8.216,3.725,9.931
			c3.77,1.712,8.216,0.047,9.931-3.725c17.27-38.049,71.181-37.434,88.11-0.013c1.253,2.771,3.98,4.41,6.837,4.41
			C312.222,385.257,315.93,379.666,313.667,374.666z"/>
	</g>
</g>
<g>
	<g>
		<path d="M380.105,203.079c-15.679-14.995-35.567-23.026-56.108-22.603c-4.14,0.084-7.429,3.51-7.344,7.65
			c0.084,4.14,3.473,7.425,7.65,7.344c17.1-0.33,33.076,6.628,45.435,18.448c1.453,1.39,3.319,2.08,5.182,2.08
			C381.613,215.997,385.017,207.777,380.105,203.079z"/>
	</g>
</g>
<g>
	<g>
		<path d="M187.901,180.476c-20.54-0.438-40.431,7.61-56.108,22.603c-2.993,2.862-3.1,7.609-0.236,10.603
			c1.473,1.541,3.445,2.316,5.42,2.316c1.863,0,3.729-0.69,5.182-2.08c12.477-11.933,28.139-18.46,44.223-18.46
			c0.404,0,0.809,0.004,1.212,0.012c0.053,0.001,0.104,0.002,0.156,0.002c4.07,0,7.411-3.258,7.494-7.346
			C195.33,183.985,192.042,180.56,187.901,180.476z"/>
	</g>
</g>
<g>
	<g>
		<path d="M178.15,372.239l-3.233-6.467c-1.852-3.705-6.356-5.208-10.061-3.354c-3.705,1.852-5.206,6.355-3.354,10.061l3.115,6.231
			c8.254,20.115-6.686,42.27-28.645,41.944c-21.205-0.356-34.998-22.215-26.322-41.467l28.691-53.041l7.433,14.871
			c1.853,3.703,6.353,5.205,10.062,3.355c3.705-1.853,5.206-6.356,3.355-10.062l-7.999-16.001c-2.4-4.803-7.228-7.841-12.596-7.927
			c-0.079-0.002-0.157-0.002-0.235-0.002c-5.277,0.003-10.093,2.867-12.61,7.52c-31.151,57.598-29.439,54.394-29.634,54.816
			c-13.498,29.38,7.963,62.942,40.38,62.942C171.283,435.656,191.327,398.253,178.15,372.239z"/>
	</g>
</g>
<g>
	<g>
		<path d="M477.574,128.028C402.935-1.251,234.229-39.596,110.785,45.223c-3.414,2.346-4.279,7.014-1.935,10.428
			c2.345,3.414,7.014,4.279,10.428,1.935c116.356-79.948,275.126-43.615,345.308,77.942
			c58.01,100.477,35.508,226.323-48.959,300.906c-3.105,2.741-3.399,7.48-0.658,10.585c2.733,3.095,7.47,3.408,10.585,0.658
			C515.246,368.481,539.232,234.822,477.574,128.028z"/>
	</g>
</g>
<g>
	<g>
		<path d="M399.005,459.2c-2.279-3.46-6.928-4.416-10.388-2.14c-4.136,2.725-8.245,5.266-12.212,7.557
			c-55.827,32.231-120.748,40.694-182.808,24.067C9.865,439.452-46.184,206.425,92.723,78.743c3.05-2.803,3.25-7.546,0.446-10.596
			c-2.803-3.05-7.546-3.249-10.596-0.446C-65.018,203.365-5.428,450.885,189.716,503.17c71.186,19.077,145.586,6.952,207.149-33.583
			C400.324,467.31,401.282,462.658,399.005,459.2z"/>
	</g>
</g>
<g>
</g>
<g>
</g>
<g>
</g>
<g>
</g>
<g>
</g>
<g>
</g>
<g>
</g>
<g>
</g>
<g>
</g>
<g>
</g>
<g>
</g>
<g>
</g>
<g>
</g>
<g>
</g>
<g>
</g>
</svg>
